<svg width="172" height="21" viewBox="0 0 172 21" fill="none" xmlns="http://www.w3.org/2000/svg">
<path d="M13.9306 15.7124H9.69876L2.86774 3.826H2.77108C2.90712 5.92528 2.97515 7.42272 2.97515 8.31832V15.7124H0V0H4.19958L11.0199 11.7682H11.095C10.9876 9.7262 10.9339 8.2825 10.9339 7.43705V0H13.9306V15.7124Z" fill="#00FFF5"/>
<path d="M22.609 5.80348C21.9144 5.80348 21.3702 6.02559 20.9764 6.46981C20.5826 6.90686 20.357 7.53019 20.2997 8.33982H24.8967C24.8824 7.53019 24.6712 6.90686 24.263 6.46981C23.8549 6.02559 23.3035 5.80348 22.609 5.80348ZM23.0708 15.9273C21.1375 15.9273 19.6267 15.3936 18.5383 14.326C17.4499 13.2584 16.9057 11.7467 16.9057 9.79069C16.9057 7.77738 17.4069 6.22262 18.4094 5.12641C19.419 4.02303 20.8117 3.47134 22.5875 3.47134C24.2845 3.47134 25.6056 3.95496 26.5508 4.92221C27.4959 5.88946 27.9685 7.22569 27.9685 8.93091V10.5215H20.2246C20.2604 11.4529 20.536 12.1801 21.0516 12.7032C21.5671 13.2262 22.2903 13.4877 23.2212 13.4877C23.9444 13.4877 24.6282 13.4125 25.2726 13.262C25.9171 13.1116 26.5902 12.8715 27.2919 12.542V15.0783C26.719 15.3649 26.1068 15.5763 25.4552 15.7124C24.8036 15.8557 24.0088 15.9273 23.0708 15.9273Z" fill="#00FFF5"/>
<path d="M35.5084 15.9273C31.7707 15.9273 29.9018 13.8746 29.9018 9.76919C29.9018 7.72723 30.4102 6.16888 31.427 5.09417C32.4438 4.01228 33.9009 3.47134 35.7984 3.47134C37.1875 3.47134 38.4335 3.7436 39.5362 4.28813L38.5695 6.82446C38.054 6.61668 37.5742 6.44831 37.1303 6.31934C36.6863 6.18321 36.2424 6.11515 35.7984 6.11515C34.0943 6.11515 33.2422 7.326 33.2422 9.7477C33.2422 12.0977 34.0943 13.2728 35.7984 13.2728C36.4285 13.2728 37.0121 13.1904 37.5491 13.0256C38.0862 12.8536 38.6232 12.5885 39.1602 12.2303V15.0353C38.6304 15.3721 38.0933 15.6049 37.5491 15.7339C37.0121 15.8628 36.3319 15.9273 35.5084 15.9273Z" fill="#00FFF5"/>
<path d="M44.5628 9.68321C44.5628 10.8726 44.7561 11.7718 45.1427 12.3808C45.5366 12.9898 46.1738 13.2943 47.0546 13.2943C47.9281 13.2943 48.5547 12.9933 48.9342 12.3915C49.3208 11.7825 49.5142 10.8797 49.5142 9.68321C49.5142 8.49386 49.3208 7.60184 48.9342 7.00716C48.5475 6.41249 47.9138 6.11515 47.0331 6.11515C46.1595 6.11515 45.5294 6.41249 45.1427 7.00716C44.7561 7.59468 44.5628 8.48669 44.5628 9.68321ZM52.8652 9.68321C52.8652 11.6392 52.3497 13.1689 51.3186 14.2723C50.2875 15.3756 48.8518 15.9273 47.0116 15.9273C45.8588 15.9273 44.842 15.6766 43.9613 15.175C43.0806 14.6663 42.4039 13.9391 41.9313 12.9933C41.4587 12.0476 41.2224 10.9442 41.2224 9.68321C41.2224 7.72006 41.7344 6.19396 42.7583 5.10491C43.7823 4.01587 45.2215 3.47134 47.0761 3.47134C48.2289 3.47134 49.2457 3.72211 50.1264 4.22364C51.0071 4.72518 51.6838 5.44524 52.1564 6.38383C52.629 7.32242 52.8652 8.42221 52.8652 9.68321Z" fill="#00FFF5"/>
<path d="M62.1666 15.9273C60.756 15.9273 59.6497 15.415 58.8478 14.3905H58.6759C58.7905 15.3936 58.8478 15.9739 58.8478 16.1315V21H55.5719V3.69703H58.2355L58.6974 5.25537H58.8478C59.6139 4.06602 60.7488 3.47134 62.2525 3.47134C63.6703 3.47134 64.7802 4.01945 65.5821 5.11566C66.3841 6.21187 66.7851 7.73439 66.7851 9.68321C66.7851 10.9657 66.5953 12.0798 66.2158 13.0256C65.8435 13.9713 65.31 14.6914 64.6155 15.1858C63.9209 15.6801 63.1046 15.9273 62.1666 15.9273ZM61.2 6.09365C60.3908 6.09365 59.8001 6.34442 59.4278 6.84596C59.0554 7.34033 58.8621 8.1607 58.8478 9.30706V9.66172C58.8478 10.9514 59.0375 11.8756 59.417 12.4345C59.8037 12.9933 60.4123 13.2728 61.2429 13.2728C62.7108 13.2728 63.4447 12.0619 63.4447 9.64023C63.4447 8.45803 63.2621 7.57318 62.897 6.98567C62.5389 6.39099 61.9733 6.09365 61.2 6.09365Z" fill="#00FFF5"/>
<path d="M72.1017 9.68321C72.1017 10.8726 72.295 11.7718 72.6817 12.3808C73.0755 12.9898 73.7128 13.2943 74.5935 13.2943C75.467 13.2943 76.0936 12.9933 76.4731 12.3915C76.8598 11.7825 77.0531 10.8797 77.0531 9.68321C77.0531 8.49386 76.8598 7.60184 76.4731 7.00716C76.0864 6.41249 75.4527 6.11515 74.572 6.11515C73.6984 6.11515 73.0683 6.41249 72.6817 7.00716C72.295 7.59468 72.1017 8.48669 72.1017 9.68321ZM80.4041 9.68321C80.4041 11.6392 79.8886 13.1689 78.8575 14.2723C77.8264 15.3756 76.3907 15.9273 74.5505 15.9273C73.3977 15.9273 72.3809 15.6766 71.5002 15.175C70.6195 14.6663 69.9428 13.9391 69.4702 12.9933C68.9976 12.0476 68.7613 10.9442 68.7613 9.68321C68.7613 7.72006 69.2733 6.19396 70.2972 5.10491C71.3212 4.01587 72.7604 3.47134 74.615 3.47134C75.7678 3.47134 76.7846 3.72211 77.6653 4.22364C78.546 4.72518 79.2227 5.44524 79.6953 6.38383C80.1679 7.32242 80.4041 8.42221 80.4041 9.68321Z" fill="#00FFF5"/>
<path d="M94.1951 15.7124H90.9192V8.69447C90.9192 7.82753 90.7653 7.17912 90.4574 6.74923C90.1495 6.31218 89.659 6.09365 88.9859 6.09365C88.0694 6.09365 87.407 6.40174 86.9989 7.01791C86.5907 7.62692 86.3867 8.64074 86.3867 10.0594V15.7124H83.1108V3.69703H85.6133L86.0537 5.23388H86.2363C86.6015 4.65353 87.1027 4.21648 87.74 3.92272C88.3844 3.6218 89.1148 3.47134 89.9311 3.47134C91.3273 3.47134 92.3871 3.85107 93.1103 4.61054C93.8335 5.36285 94.1951 6.45189 94.1951 7.87769V15.7124Z" fill="#00FFF5"/>
<path d="M113.732 3.69703V5.36285L111.853 5.84647C112.196 6.38383 112.368 6.98567 112.368 7.652C112.368 8.94166 111.917 9.94831 111.015 10.672C110.12 11.3884 108.874 11.7467 107.277 11.7467L106.686 11.7144L106.203 11.6607C105.867 11.9186 105.698 12.2052 105.698 12.5205C105.698 12.9933 106.3 13.2298 107.503 13.2298H109.543C110.861 13.2298 111.863 13.5128 112.551 14.0788C113.245 14.6448 113.593 15.4759 113.593 16.5722C113.593 17.9765 113.005 19.0655 111.831 19.8393C110.664 20.6131 108.985 21 106.794 21C105.118 21 103.837 20.7062 102.949 20.1187C102.068 19.5384 101.628 18.7216 101.628 17.6684C101.628 16.9447 101.853 16.3393 102.304 15.8521C102.755 15.3649 103.418 15.0174 104.291 14.8096C103.955 14.6663 103.661 14.4335 103.411 14.1111C103.16 13.7815 103.035 13.434 103.035 13.0686C103.035 12.61 103.167 12.2303 103.432 11.9294C103.697 11.6213 104.08 11.3204 104.581 11.0266C103.951 10.7544 103.45 10.3173 103.078 9.71546C102.712 9.11361 102.53 8.4043 102.53 7.58751C102.53 6.27636 102.956 5.26254 103.808 4.54606C104.66 3.82958 105.877 3.47134 107.46 3.47134C107.796 3.47134 108.194 3.50358 108.652 3.56807C109.117 3.62538 109.415 3.66837 109.543 3.69703H113.732ZM104.463 17.4104C104.463 17.8618 104.678 18.2165 105.108 18.4744C105.544 18.7323 106.153 18.8613 106.933 18.8613C108.108 18.8613 109.028 18.7001 109.694 18.3777C110.36 18.0553 110.693 17.6146 110.693 17.0558C110.693 16.6044 110.496 16.2927 110.102 16.1208C109.708 15.9488 109.099 15.8628 108.276 15.8628H106.579C105.978 15.8628 105.473 16.0026 105.065 16.282C104.664 16.5686 104.463 16.9447 104.463 17.4104ZM105.655 7.6305C105.655 8.2825 105.802 8.79836 106.096 9.1781C106.396 9.55783 106.851 9.7477 107.46 9.7477C108.076 9.7477 108.527 9.55783 108.813 9.1781C109.099 8.79836 109.243 8.2825 109.243 7.6305C109.243 6.18321 108.648 5.45957 107.46 5.45957C106.257 5.45957 105.655 6.18321 105.655 7.6305Z" fill="#00FFF5"/>
<path d="M123.345 15.7124L122.711 14.0788H122.625C122.074 14.7738 121.505 15.2574 120.918 15.5297C120.338 15.7948 119.579 15.9273 118.641 15.9273C117.488 15.9273 116.578 15.5977 115.913 14.9386C115.254 14.2794 114.924 13.3408 114.924 12.1228C114.924 10.8475 115.368 9.90891 116.256 9.30706C117.151 8.69806 118.497 8.36131 120.295 8.29683L122.378 8.23234V7.70573C122.378 6.48772 121.755 5.87871 120.51 5.87871C119.55 5.87871 118.422 6.16888 117.126 6.74923L116.041 4.53531C117.423 3.81167 118.956 3.44985 120.638 3.44985C122.25 3.44985 123.485 3.80092 124.344 4.50307C125.203 5.20522 125.633 6.27277 125.633 7.70573V15.7124H123.345ZM122.378 10.1453L121.111 10.1883C120.159 10.217 119.45 10.3889 118.984 10.7042C118.519 11.0194 118.286 11.4995 118.286 12.1443C118.286 13.0686 118.816 13.5307 119.876 13.5307C120.635 13.5307 121.24 13.3122 121.691 12.8751C122.149 12.4381 122.378 11.8577 122.378 11.1341V10.1453Z" fill="#00FFF5"/>
<path d="M139.767 15.7124H136.492V8.69447C136.492 7.82753 136.345 7.17912 136.051 6.74923C135.765 6.31218 135.31 6.09365 134.687 6.09365C133.849 6.09365 133.241 6.40174 132.861 7.01791C132.482 7.63408 132.292 8.6479 132.292 10.0594V15.7124H129.016V3.69703H131.519L131.959 5.23388H132.142C132.464 4.68219 132.929 4.2523 133.538 3.94422C134.147 3.62897 134.845 3.47134 135.632 3.47134C137.43 3.47134 138.647 4.05885 139.284 5.23388H139.574C139.896 4.67503 140.369 4.24156 140.992 3.93347C141.622 3.62538 142.331 3.47134 143.119 3.47134C144.479 3.47134 145.507 3.82242 146.201 4.52457C146.903 5.21955 147.254 6.33726 147.254 7.87769V15.7124H143.967V8.69447C143.967 7.82753 143.82 7.17912 143.527 6.74923C143.24 6.31218 142.786 6.09365 142.163 6.09365C141.361 6.09365 140.759 6.38025 140.358 6.95343C139.964 7.52661 139.767 8.43654 139.767 9.68321V15.7124Z" fill="#00FFF5"/>
<path d="M155.599 5.80348C154.905 5.80348 154.36 6.02559 153.967 6.46981C153.573 6.90686 153.347 7.53019 153.29 8.33982H157.887C157.873 7.53019 157.661 6.90686 157.253 6.46981C156.845 6.02559 156.294 5.80348 155.599 5.80348ZM156.061 15.9273C154.128 15.9273 152.617 15.3936 151.528 14.326C150.44 13.2584 149.896 11.7467 149.896 9.79069C149.896 7.77738 150.397 6.22262 151.4 5.12641C152.409 4.02303 153.802 3.47134 155.578 3.47134C157.275 3.47134 158.596 3.95496 159.541 4.92221C160.486 5.88946 160.959 7.22569 160.959 8.93091V10.5215H153.215C153.25 11.4529 153.526 12.1801 154.042 12.7032C154.557 13.2262 155.28 13.4877 156.211 13.4877C156.935 13.4877 157.618 13.4125 158.263 13.262C158.907 13.1116 159.58 12.8715 160.282 12.542V15.0783C159.709 15.3649 159.097 15.5763 158.445 15.7124C157.794 15.8557 156.999 15.9273 156.061 15.9273Z" fill="#00FFF5"/>
<path d="M172 12.1443C172 13.3767 171.57 14.3153 170.711 14.9601C169.859 15.6049 168.581 15.9273 166.877 15.9273C166.003 15.9273 165.258 15.8664 164.643 15.7446C164.027 15.63 163.45 15.458 162.913 15.2288V12.5205C163.522 12.8071 164.206 13.0471 164.965 13.2405C165.731 13.434 166.404 13.5307 166.984 13.5307C168.173 13.5307 168.767 13.1868 168.767 12.499C168.767 12.241 168.688 12.0333 168.531 11.8756C168.373 11.7108 168.101 11.5281 167.715 11.3275C167.328 11.1198 166.812 10.8797 166.168 10.6075C165.244 10.2206 164.564 9.86233 164.127 9.53275C163.698 9.20317 163.382 8.82702 163.182 8.4043C162.989 7.97441 162.892 7.4478 162.892 6.82446C162.892 5.75691 163.304 4.93296 164.127 4.35261C164.958 3.7651 166.132 3.47134 167.65 3.47134C169.096 3.47134 170.503 3.78659 171.871 4.41709L170.883 6.78147C170.282 6.52354 169.719 6.31218 169.197 6.14739C168.674 5.9826 168.141 5.9002 167.596 5.9002C166.63 5.9002 166.146 6.16172 166.146 6.68475C166.146 6.97851 166.3 7.23286 166.608 7.4478C166.923 7.66274 167.607 7.98158 168.66 8.4043C169.598 8.78403 170.285 9.13869 170.722 9.46827C171.159 9.79785 171.481 10.1776 171.689 10.6075C171.896 11.0374 172 11.5496 172 12.1443Z" fill="#00FFF5"/>
</svg>
